<?xml version="1.0" encoding="UTF-8"?>
<!DOCTYPE svg PUBLIC "-//W3C//DTD SVG 1.1//EN" "http://www.w3.org/Graphics/SVG/1.1/DTD/svg11.dtd">
<!-- Creator: CorelDRAW X6 -->
<svg xmlns="http://www.w3.org/2000/svg" xml:space="preserve" width="11597" height="792" version="1.1" class="logo-title-svg" style="shape-rendering:geometricPrecision; text-rendering:geometricPrecision; image-rendering:optimizeQuality; fill-rule:evenodd; clip-rule:evenodd"
viewBox="0 0 11597 792"
 xmlns:xlink="http://www.w3.org/1999/xlink">
 <defs>
  <style type="text/css">
   <![CDATA[
    .fil0 {fill:white;fill-rule:nonzero}
   ]]>
  </style>
 </defs>
 <g id="Layer_x0020_1">
  <metadata id="CorelCorpID_0Corel-Layer"/>
  <g id="_318248544">
   <polygon class="fil0" points="450,792 450,739 330,739 330,58 547,58 547,238 601,238 601,5 2,5 2,238 54,238 54,58 271,58 271,739 152,739 152,792 "/>
  </g>
  <g id="_318248184">
   <polygon class="fil0" points="1428,5 1428,58 1537,58 1398,717 1394,717 1227,5 1139,5 968,717 966,717 830,58 937,58 937,5 715,5 715,58 769,58 924,792 1006,792 1183,76 1184,76 1354,792 1437,792 1595,58 1651,58 1651,5 "/>
  </g>
  <g id="_318248784">
   <path class="fil0" d="M1820 608c26,62 64,110 116,145 51,34 113,52 186,52 72,0 134,-17 186,-52 52,-34 91,-83 118,-145 27,-62 40,-134 40,-216 0,-122 -30,-219 -90,-291 -60,-72 -145,-107 -254,-107 -110,0 -194,36 -253,107 -59,71 -88,168 -88,291 0,82 13,154 39,216zm56 -391l0 0c19,-52 49,-93 91,-124 41,-31 93,-47 155,-47 61,0 112,15 154,46 42,31 72,73 92,125 20,53 30,111 30,174 0,109 -23,196 -69,261 -46,66 -115,98 -207,98 -62,0 -114,-15 -155,-46 -41,-30 -71,-72 -90,-126 -19,-54 -29,-116 -29,-188 0,-65 10,-123 29,-175z"/>
  </g>
  <g id="_318249456">
   <polygon class="fil0" points="3753,5 3753,58 3861,58 3722,717 3719,717 3552,5 3463,5 3292,717 3291,717 3155,58 3262,58 3262,5 3040,5 3040,58 3094,58 3248,792 3331,792 3507,76 3509,76 3679,792 3762,792 3919,58 3975,58 3975,5 "/>
  </g>
  <g id="_318249528">
   <polygon class="fil0" points="4335,792 4335,739 4238,739 4238,58 4335,58 4335,5 4079,5 4079,58 4177,58 4177,739 4079,739 4079,792 "/>
  </g>
  <g id="_318249408">
   <polygon class="fil0" points="4709,792 4709,739 4601,739 4601,58 4604,58 4995,792 5089,792 5089,58 5180,58 5180,5 4919,5 4919,58 5027,58 5027,739 5026,739 4636,5 4450,5 4450,58 4541,58 4541,739 4450,739 4450,792 "/>
  </g>
  <g id="_318249624">
   <polygon class="fil0" points="5754,792 5754,739 5634,739 5634,58 5851,58 5851,238 5905,238 5905,5 5305,5 5305,238 5358,238 5358,58 5575,58 5575,739 5456,739 5456,792 "/>
  </g>
  <g id="_318249312">
   <polygon class="fil0" points="6593,792 6593,546 6539,546 6539,739 6185,739 6185,421 6368,421 6368,546 6422,546 6422,251 6368,251 6368,368 6185,368 6185,58 6532,58 6532,251 6587,251 6587,5 6027,5 6027,58 6124,58 6124,739 6027,739 6027,792 "/>
  </g>
  <g id="_318249144">
   <path class="fil0" d="M7015 792l0 -53 -98 0 0 -302 122 0c43,0 74,3 93,9 19,6 32,16 40,31 8,15 18,42 29,83l68 232 110 0 0 -53 -58 0 -49 -163c-16,-51 -27,-85 -35,-102 -8,-17 -17,-29 -27,-36 -10,-7 -29,-15 -56,-23l0 -4c51,-9 90,-28 117,-57 27,-29 40,-76 40,-141 0,-61 -14,-106 -41,-137 -28,-31 -62,-50 -102,-59 -40,-8 -89,-13 -147,-13l-263 0 0 53 98 0 0 681 -98 0 0 53 256 0zm20 -734l0 0c48,0 86,3 114,9 29,6 52,20 69,43 18,23 26,58 26,104 0,49 -10,86 -29,111 -19,25 -44,42 -73,49 -30,7 -65,11 -108,11l-119 0 0 -327 119 0z"/>
  </g>
  <g id="_318250128">
   <path class="fil0" d="M7934 85c-32,-61 -92,-91 -181,-91 -38,0 -74,8 -108,25 -34,17 -62,41 -82,73 -21,32 -31,68 -31,109 0,59 18,103 53,132 35,29 87,56 155,80 68,24 119,48 152,71 33,23 50,58 50,107 0,52 -18,92 -53,120 -35,28 -76,41 -122,41 -55,0 -100,-20 -133,-60 -33,-40 -50,-93 -50,-159l-53 0 0 259 53 0 0 -103 3 0c37,77 103,115 198,115 39,0 75,-9 109,-26 34,-17 61,-42 82,-74 21,-32 31,-70 31,-114 0,-66 -18,-115 -54,-146 -36,-32 -89,-59 -160,-84 -71,-24 -122,-46 -152,-64 -30,-18 -45,-50 -45,-96 0,-47 16,-84 47,-112 31,-28 68,-42 109,-42 65,0 112,18 141,54 29,36 44,91 44,164l54 0 0 -259 -54 0 0 80 -4 0z"/>
  </g>
  <g id="_318249696">
   <path class="fil0" d="M8667 608c26,62 64,110 116,145 51,34 113,52 186,52 72,0 134,-17 186,-52 52,-34 91,-83 118,-145 27,-62 40,-134 40,-216 0,-122 -30,-219 -90,-291 -60,-72 -145,-107 -254,-107 -110,0 -194,36 -253,107 -59,71 -88,168 -88,291 0,82 13,154 39,216zm56 -391l0 0c19,-52 49,-93 91,-124 41,-31 93,-47 155,-47 61,0 112,15 154,46 42,31 72,73 92,125 20,53 30,111 30,174 0,109 -23,196 -69,261 -46,66 -115,98 -207,98 -62,0 -114,-15 -155,-46 -41,-30 -71,-72 -90,-126 -19,-54 -29,-116 -29,-188 0,-65 10,-123 29,-175z"/>
  </g>
  <g id="_318249768">
   <polygon class="fil0" points="9714,792 9714,739 9606,739 9606,58 9609,58 10001,792 10094,792 10094,58 10186,58 10186,5 9925,5 9925,58 10033,58 10033,739 10031,739 9642,5 9455,5 9455,58 9547,58 9547,739 9455,739 9455,792 "/>
  </g>
  <g id="_318250224">
   <polygon class="fil0" points="10848,792 10848,558 10794,558 10794,739 10467,739 10467,58 10596,58 10596,5 10308,5 10308,58 10406,58 10406,739 10308,739 10308,792 "/>
  </g>
  <g id="_318249912">
   <polygon class="fil0" points="11427,792 11427,739 11307,739 11307,470 11548,58 11597,58 11597,5 11384,5 11384,58 11482,58 11277,409 11078,58 11177,58 11177,5 10965,5 10965,58 11014,58 11246,470 11246,739 11127,739 11127,792 "/>
  </g>
 </g>
</svg>
