<svg viewBox="0 0 450 35" xmlns="http://www.w3.org/2000/svg">
  <path d="M6.69921875,34 L6.69921875,31.7675781 L11.7441406,31.7675781 L11.7441406,2.81640625 L2.53320312,2.81640625 L2.53320312,10.4628906 L0.30078125,10.4628906 L0.30078125,0.583984375 L25.7890625,0.583984375 L25.7890625,10.4628906 L23.4863281,10.4628906 L23.4863281,2.81640625 L14.2578125,2.81640625 L14.2578125,31.7675781 L19.3730469,31.7675781 L19.3730469,34 L6.69921875,34 Z M67.484375,0.583984375 L67.484375,2.81640625 L65.1113281,2.81640625 L58.4140625,34 L54.8808594,34 L47.6738281,3.60742188 L47.6035156,3.60742188 L40.1152344,34 L36.5996094,34 L30.0429688,2.81640625 L27.7402344,2.81640625 L27.7402344,0.583984375 L37.1621094,0.583984375 L37.1621094,2.81640625 L32.6269531,2.81640625 L38.3925781,30.8359375 L38.4628906,30.8359375 L45.7402344,0.583984375 L49.484375,0.583984375 L56.6035156,30.8359375 L56.7441406,30.8359375 L62.6503906,2.81640625 L58.0449219,2.81640625 L58.0449219,0.583984375 L67.484375,0.583984375 Z M70.15625,17.0019531 C70.15625,11.7870833 71.4013547,7.66505421 73.8916016,4.63574219 C76.3818484,1.60643017 79.9589611,0.091796875 84.6230469,0.091796875 C89.2871327,0.091796875 92.8906123,1.61228948 95.4335938,4.65332031 C97.9765752,7.69435114 99.2480469,11.8105209 99.2480469,17.0019531 C99.2480469,20.4590017 98.6796932,23.5117055 97.5429688,26.1601562 C96.4062443,28.808607 94.7363391,30.8622974 92.5332031,32.3212891 C90.3300671,33.7802807 87.6933747,34.5097656 84.6230469,34.5097656 C81.5292814,34.5097656 78.8955187,33.7802807 76.7216797,32.3212891 C74.5478407,30.8622974 72.9101618,28.8144663 71.8085938,26.1777344 C70.7070257,23.5410024 70.15625,20.4824393 70.15625,17.0019531 Z M72.96875,17.0019531 C72.96875,20.0488434 73.3759725,22.7119027 74.1904297,24.9912109 C75.0048869,27.2705192 76.2851475,29.0546811 78.03125,30.34375 C79.7773525,31.6328189 81.9745961,32.2773438 84.6230469,32.2773438 C88.5371289,32.2773438 91.4726465,30.8857561 93.4296875,28.1025391 C95.3867285,25.319322 96.3652344,21.6191637 96.3652344,17.0019531 C96.3652344,14.3066271 95.9375043,11.8427846 95.0820312,9.61035156 C94.2265582,7.37791853 92.917001,5.60547531 91.1533203,4.29296875 C89.3896396,2.98046219 87.2129036,2.32421875 84.6230469,2.32421875 C81.9863149,2.32421875 79.7920009,2.98339185 78.0400391,4.30175781 C76.2880772,5.62012378 75.0048869,7.38084836 74.1904297,9.58398438 C73.3759725,11.7871204 72.96875,14.2597519 72.96875,17.0019531 Z M157.625,0.583984375 L157.625,2.81640625 L155.251953,2.81640625 L148.554688,34 L145.021484,34 L137.814453,3.60742188 L137.744141,3.60742188 L130.255859,34 L126.740234,34 L120.183594,2.81640625 L117.880859,2.81640625 L117.880859,0.583984375 L127.302734,0.583984375 L127.302734,2.81640625 L122.767578,2.81640625 L128.533203,30.8359375 L128.603516,30.8359375 L135.880859,0.583984375 L139.625,0.583984375 L146.744141,30.8359375 L146.884766,30.8359375 L152.791016,2.81640625 L148.185547,2.81640625 L148.185547,0.583984375 L157.625,0.583984375 Z M159.136719,34 L159.136719,31.7675781 L163.320312,31.7675781 L163.320312,2.81640625 L159.136719,2.81640625 L159.136719,0.583984375 L170.017578,0.583984375 L170.017578,2.81640625 L165.904297,2.81640625 L165.904297,31.7675781 L170.017578,31.7675781 L170.017578,34 L159.136719,34 Z M172.021484,34 L172.021484,31.7675781 L175.923828,31.7675781 L175.923828,2.81640625 L172.021484,2.81640625 L172.021484,0.583984375 L179.949219,0.583984375 L196.507812,31.7675781 L196.578125,31.7675781 L196.578125,2.81640625 L191.972656,2.81640625 L191.972656,0.583984375 L203.064453,0.583984375 L203.064453,2.81640625 L199.179688,2.81640625 L199.179688,34 L195.207031,34 L178.578125,2.81640625 L178.4375,2.81640625 L178.4375,31.7675781 L183.042969,31.7675781 L183.042969,34 L172.021484,34 Z M211.90625,34 L211.90625,31.7675781 L216.951172,31.7675781 L216.951172,2.81640625 L207.740234,2.81640625 L207.740234,10.4628906 L205.507812,10.4628906 L205.507812,0.583984375 L230.996094,0.583984375 L230.996094,10.4628906 L228.693359,10.4628906 L228.693359,2.81640625 L219.464844,2.81640625 L219.464844,31.7675781 L224.580078,31.7675781 L224.580078,34 L211.90625,34 Z M233.298828,34 L233.298828,31.7675781 L237.412109,31.7675781 L237.412109,2.81640625 L233.298828,2.81640625 L233.298828,0.583984375 L257.064453,0.583984375 L257.064453,11.0253906 L254.761719,11.0253906 L254.761719,2.81640625 L239.996094,2.81640625 L239.996094,16 L247.783203,16 L247.783203,11.0253906 L250.085938,11.0253906 L250.085938,23.5585938 L247.783203,23.5585938 L247.783203,18.2324219 L239.996094,18.2324219 L239.996094,31.7675781 L255.042969,31.7675781 L255.042969,23.5585938 L257.345703,23.5585938 L257.345703,34 L233.298828,34 Z M261.529297,34 L261.529297,31.7675781 L265.712891,31.7675781 L265.712891,2.81640625 L261.529297,2.81640625 L261.529297,0.583984375 L272.691406,0.583984375 C275.140637,0.583984375 277.220695,0.762693525 278.931641,1.12011719 C280.642587,1.47754085 282.083979,2.30956378 283.255859,3.61621094 C284.42774,4.9228581 285.013672,6.86522148 285.013672,9.44335938 C285.013672,12.2324358 284.442389,14.2333924 283.299805,15.4462891 C282.157221,16.6591858 280.496105,17.4648418 278.316406,17.8632812 L278.316406,18.0214844 C279.476568,18.3847674 280.273435,18.7128892 280.707031,19.0058594 C281.140627,19.2988296 281.521483,19.8085901 281.849609,20.5351562 C282.177736,21.2617224 282.675778,22.7031142 283.34375,24.859375 L285.435547,31.7675781 L287.878906,31.7675781 L287.878906,34 L283.203125,34 L280.320312,24.1386719 C279.828123,22.416007 279.415041,21.2441437 279.081055,20.6230469 C278.747069,20.00195 278.175785,19.5683606 277.367188,19.3222656 C276.55859,19.0761706 275.240244,18.953125 273.412109,18.953125 L268.226562,18.953125 L268.226562,31.7675781 L272.410156,31.7675781 L272.410156,34 L261.529297,34 Z M268.226562,2.81640625 L268.226562,16.7207031 L273.271484,16.7207031 C275.064462,16.7207031 276.587884,16.5654312 277.841797,16.2548828 C279.095709,15.9443344 280.135738,15.252935 280.961914,14.1806641 C281.78809,13.1083931 282.201172,11.5293073 282.201172,9.44335938 C282.201172,7.47459953 281.826176,6.00391111 281.076172,5.03125 C280.326168,4.05858889 279.344733,3.44629032 278.131836,3.19433594 C276.918939,2.94238155 275.298838,2.81640625 273.271484,2.81640625 L268.226562,2.81640625 Z M308.708984,3.9765625 L308.708984,0.583984375 L311.011719,0.583984375 L311.011719,11.6054688 L308.708984,11.6054688 C308.708984,8.48826566 308.090826,6.16211705 306.854492,4.62695312 C305.618158,3.0917892 303.617201,2.32421875 300.851562,2.32421875 C299.082022,2.32421875 297.535163,2.91893937 296.210938,4.10839844 C294.886712,5.29785751 294.224609,6.8828026 294.224609,8.86328125 C294.224609,10.7968847 294.863275,12.1562461 296.140625,12.9414062 C297.417975,13.7265664 299.565415,14.6347605 302.583008,15.6660156 C305.600601,16.6972708 307.868156,17.8837824 309.385742,19.2255859 C310.903328,20.5673895 311.662109,22.6386579 311.662109,25.4394531 C311.662109,27.2793061 311.222661,28.8876884 310.34375,30.2646484 C309.464839,31.6416084 308.301765,32.6933557 306.854492,33.4199219 C305.407219,34.146488 303.863289,34.5097656 302.222656,34.5097656 C298.179667,34.5097656 295.373055,32.8750163 293.802734,29.6054688 L293.662109,29.6054688 L293.662109,34 L291.429688,34 L291.429688,22.9785156 L293.662109,22.9785156 C293.662109,25.7675921 294.368157,28.0146399 295.780273,29.7197266 C297.19239,31.4248132 299.07616,32.2773438 301.431641,32.2773438 C303.4004,32.2773438 305.128899,31.6914121 306.617188,30.5195312 C308.105476,29.3476504 308.849609,27.6543079 308.849609,25.4394531 C308.849609,23.3769428 308.140632,21.8652392 306.722656,20.9042969 C305.30468,19.9433546 303.151382,18.9443411 300.262695,17.9072266 C297.374009,16.870112 295.179695,15.730475 293.679688,14.4882812 C292.17968,13.2460875 291.429688,11.3711063 291.429688,8.86328125 C291.429688,7.12889758 291.869136,5.59082702 292.748047,4.24902344 C293.626958,2.90721985 294.792961,1.87890982 296.246094,1.1640625 C297.699226,0.449215176 299.234367,0.091796875 300.851562,0.091796875 C304.625019,0.091796875 307.191399,1.3867058 308.550781,3.9765625 L308.708984,3.9765625 Z M332.316406,17.0019531 C332.316406,11.7870833 333.561511,7.66505421 336.051758,4.63574219 C338.542005,1.60643017 342.119117,0.091796875 346.783203,0.091796875 C351.447289,0.091796875 355.050769,1.61228948 357.59375,4.65332031 C360.136731,7.69435114 361.408203,11.8105209 361.408203,17.0019531 C361.408203,20.4590017 360.839849,23.5117055 359.703125,26.1601562 C358.566401,28.808607 356.896495,30.8622974 354.693359,32.3212891 C352.490223,33.7802807 349.853531,34.5097656 346.783203,34.5097656 C343.689438,34.5097656 341.055675,33.7802807 338.881836,32.3212891 C336.707997,30.8622974 335.070318,28.8144663 333.96875,26.1777344 C332.867182,23.5410024 332.316406,20.4824393 332.316406,17.0019531 Z M335.128906,17.0019531 C335.128906,20.0488434 335.536129,22.7119027 336.350586,24.9912109 C337.165043,27.2705192 338.445304,29.0546811 340.191406,30.34375 C341.937509,31.6328189 344.134752,32.2773438 346.783203,32.2773438 C350.697285,32.2773438 353.632803,30.8857561 355.589844,28.1025391 C357.546885,25.319322 358.525391,21.6191637 358.525391,17.0019531 C358.525391,14.3066271 358.097661,11.8427846 357.242188,9.61035156 C356.386714,7.37791853 355.077157,5.60547531 353.313477,4.29296875 C351.549796,2.98046219 349.37306,2.32421875 346.783203,2.32421875 C344.146471,2.32421875 341.952157,2.98339185 340.200195,4.30175781 C338.448233,5.62012378 337.165043,7.38084836 336.350586,9.58398438 C335.536129,11.7871204 335.128906,14.2597519 335.128906,17.0019531 Z M364.554688,34 L364.554688,31.7675781 L368.457031,31.7675781 L368.457031,2.81640625 L364.554688,2.81640625 L364.554688,0.583984375 L372.482422,0.583984375 L389.041016,31.7675781 L389.111328,31.7675781 L389.111328,2.81640625 L384.505859,2.81640625 L384.505859,0.583984375 L395.597656,0.583984375 L395.597656,2.81640625 L391.712891,2.81640625 L391.712891,34 L387.740234,34 L371.111328,2.81640625 L370.970703,2.81640625 L370.970703,31.7675781 L375.576172,31.7675781 L375.576172,34 L364.554688,34 Z M397.900391,34 L397.900391,31.7675781 L402.066406,31.7675781 L402.066406,2.81640625 L397.900391,2.81640625 L397.900391,0.583984375 L410.134766,0.583984375 L410.134766,2.81640625 L404.667969,2.81640625 L404.667969,31.7675781 L418.554688,31.7675781 L418.554688,24.0683594 L420.857422,24.0683594 L420.857422,34 L397.900391,34 Z M429.857422,34 L429.857422,31.7675781 L434.902344,31.7675781 L434.902344,20.3242188 L425.041016,2.81640625 L422.949219,2.81640625 L422.949219,0.583984375 L431.949219,0.583984375 L431.949219,2.81640625 L427.765625,2.81640625 L436.203125,17.7226562 L444.904297,2.81640625 L440.738281,2.81640625 L440.738281,0.583984375 L449.808594,0.583984375 L449.808594,2.81640625 L447.716797,2.81640625 L437.486328,20.3242188 L437.486328,31.7675781 L442.601562,31.7675781 L442.601562,34 L429.857422,34 Z" fill="#ffffff"></path>
</svg>